<svg width="144" height="40" viewBox="0 0 144 40" fill="none" xmlns="http://www.w3.org/2000/svg">
<rect width="40" height="40" rx="10" fill="#2ACC8B"/>
<path d="M18.206 6.14607L18.4907 5.08356L18.4907 5.08356L18.206 6.14607ZM28.481 8.90021L28.7657 7.83771L28.7657 7.83769L28.481 8.90021ZM33.8533 18.2054L34.9158 18.49L34.9158 18.49L33.8533 18.2054ZM31.1 28.4806L32.1625 28.7653L32.1625 28.7653L31.1 28.4806ZM21.7948 33.8529L21.5101 34.9155L21.5101 34.9155L21.7948 33.8529ZM11.5195 31.0998L11.2348 32.1623L11.2348 32.1623L11.5195 31.0998ZM6.1472 21.7946L5.08468 21.5099L5.08466 21.51L6.1472 21.7946ZM8.90048 11.5194L7.83796 11.2347L7.83795 11.2347L8.90048 11.5194ZM8.88806 15.4066L7.82415 15.6861L8.88806 15.4066ZM18.4214 31.9193L17.6473 32.7008L18.4214 31.9193ZM15.4069 31.1115L15.1272 30.0477L15.4069 31.1115ZM31.1121 24.5922L30.0482 24.8719L31.1121 24.5922ZM18.206 6.14607L17.9212 7.20858C19.0523 7.51166 20.0302 8.09387 20.8048 8.86084L21.5788 8.07921L22.3528 7.29758C21.3139 6.26888 20.0012 5.48832 18.4907 5.08356L18.206 6.14607ZM24.5929 8.88709L24.872 9.95107C25.9264 9.67442 27.0649 9.65958 28.1962 9.96272L28.481 8.90021L28.7657 7.83769C27.2553 7.433 25.728 7.45201 24.3137 7.82311L24.5929 8.88709ZM28.481 8.90021L28.1962 9.96271C31.6625 10.8917 33.7195 14.4544 32.7908 17.9207L33.8533 18.2054L34.9158 18.49C36.1591 13.8501 33.4054 9.08118 28.7657 7.83771L28.481 8.90021ZM33.8533 18.2054L32.7908 17.9207C32.4877 19.0516 31.9054 20.0293 31.1383 20.8037L31.9198 21.5778L32.7013 22.3519C33.7301 21.3133 34.511 20.0008 34.9158 18.49L33.8533 18.2054ZM31.1121 24.5922L30.0482 24.8719C30.3253 25.9263 30.3406 27.0645 30.0375 28.1959L31.1 28.4806L32.1625 28.7653C32.5674 27.2543 32.5476 25.7269 32.1759 24.3126L31.1121 24.5922ZM31.1 28.4806L30.0375 28.1959C29.1086 31.6622 25.5458 33.7191 22.0794 32.7904L21.7948 33.8529L21.5101 34.9155C26.15 36.1586 30.9192 33.4053 32.1625 28.7653L31.1 28.4806ZM21.7948 33.8529L22.0795 32.7904C20.9481 32.4873 19.97 31.9049 19.1955 31.1377L18.4214 31.9193L17.6473 32.7008C18.6862 33.7299 19.9991 34.5106 21.5101 34.9155L21.7948 33.8529ZM15.4069 31.1115L15.1272 30.0477C14.073 30.3248 12.9352 30.3403 11.8042 30.0372L11.5195 31.0998L11.2348 32.1623C12.7456 32.5671 14.2726 32.5471 15.6865 32.1754L15.4069 31.1115ZM11.5195 31.0998L11.8043 30.0372C8.33802 29.1084 6.2811 25.5456 7.20973 22.0792L6.1472 21.7946L5.08466 21.51C3.84166 26.1498 6.59491 30.919 11.2348 32.1623L11.5195 31.0998ZM6.1472 21.7946L7.20972 22.0793C7.51286 20.948 8.0951 19.9697 8.86209 19.195L8.0804 18.4211L7.2987 17.6471C6.26991 18.6863 5.48945 19.9993 5.08468 21.5099L6.1472 21.7946ZM8.88806 15.4066L9.95198 15.1272C9.67512 14.0731 9.65997 12.9352 9.96301 11.804L8.90048 11.5194L7.83795 11.2347C7.43328 12.7452 7.45276 14.2721 7.82415 15.6861L8.88806 15.4066ZM8.90048 11.5194L9.963 11.8041C10.8919 8.33746 14.455 6.27982 17.9213 7.20859L18.206 6.14607L18.4907 5.08356C13.8504 3.84022 9.08123 6.59479 7.83796 11.2347L8.90048 11.5194ZM8.0804 18.4211L8.86209 19.195C9.9023 18.1443 10.3276 16.5572 9.95198 15.1272L8.88806 15.4066L7.82415 15.6861C8.00205 16.3634 7.79144 17.1495 7.2987 17.6471L8.0804 18.4211ZM18.4214 31.9193L19.1955 31.1377C18.1449 30.0972 16.5575 29.6717 15.1272 30.0477L15.4069 31.1115L15.6865 32.1754C16.3637 31.9974 17.1497 32.208 17.6473 32.7008L18.4214 31.9193ZM31.9198 21.5778L31.1383 20.8037C30.0976 21.8543 29.6723 23.4417 30.0482 24.8719L31.1121 24.5922L32.1759 24.3126C31.9979 23.6353 32.2085 22.8494 32.7013 22.3519L31.9198 21.5778ZM21.5788 8.07921L20.8048 8.86084C21.8553 9.90111 23.4422 10.3262 24.872 9.95107L24.5929 8.88709L24.3137 7.82311C23.6362 8.00087 22.8503 7.7902 22.3528 7.29758L21.5788 8.07921Z" fill="white"/>
<rect x="22.4688" y="14.3994" width="5.35714" height="6.25" rx="2.67857" transform="rotate(6.47629 22.4688 14.3994)" fill="white"/>
<ellipse cx="25.8919" cy="17.9329" rx="1.11607" ry="1.78571" transform="rotate(6.47629 25.8919 17.9329)" fill="#2ACE8C"/>
<rect x="15.0156" y="13.5532" width="5.35714" height="6.25" rx="2.67857" transform="rotate(6.47629 15.0156 13.5532)" fill="white"/>
<ellipse cx="18.4388" cy="17.0867" rx="1.11607" ry="1.78571" transform="rotate(6.47629 18.4388 17.0867)" fill="#2ACE8C"/>
<path d="M60.516 31.36C58.98 31.36 57.864 30.82 57.168 29.74C56.808 29.14 56.544 28.396 56.376 27.508C56.232 26.62 56.16 25.36 56.16 23.728V10.48C56.16 9.784 56.316 9.244 56.628 8.86C56.94 8.476 57.384 8.284 57.96 8.284C58.512 8.284 58.944 8.476 59.256 8.86C59.568 9.244 59.724 9.784 59.724 10.48V24.232C59.724 25.192 59.76 25.948 59.832 26.5C59.904 27.028 60.048 27.424 60.264 27.688C60.48 27.928 60.768 28.108 61.128 28.228C61.44 28.348 61.68 28.552 61.848 28.84C62.04 29.104 62.124 29.464 62.1 29.92C62.1 30.352 61.944 30.7 61.632 30.964C61.344 31.228 60.972 31.36 60.516 31.36ZM72.34 22.108V21.748C72.34 20.86 72.136 20.248 71.728 19.912C71.344 19.552 70.672 19.372 69.712 19.372C69.184 19.372 68.632 19.444 68.056 19.588C67.504 19.732 67.012 19.936 66.58 20.2C66.364 20.32 66.172 20.38 66.004 20.38C65.62 20.38 65.296 20.248 65.032 19.984C64.768 19.696 64.636 19.36 64.636 18.976C64.636 18.496 64.792 18.136 65.104 17.896C65.608 17.488 66.304 17.164 67.192 16.924C68.104 16.684 69.088 16.564 70.144 16.564C71.416 16.564 72.472 16.732 73.312 17.068C74.176 17.38 74.836 17.872 75.292 18.544C75.556 18.952 75.736 19.456 75.832 20.056C75.928 20.632 75.976 21.568 75.976 22.864V29.74C75.976 30.244 75.82 30.64 75.508 30.928C75.196 31.216 74.764 31.36 74.212 31.36C73.804 31.36 73.48 31.24 73.24 31C73 30.76 72.82 30.304 72.7 29.632C72.172 30.232 71.548 30.676 70.828 30.964C70.132 31.228 69.268 31.36 68.236 31.36C66.652 31.36 65.452 30.988 64.636 30.244C63.82 29.5 63.412 28.42 63.412 27.004C63.412 25.18 64 23.884 65.176 23.116C65.728 22.756 66.424 22.492 67.264 22.324C68.128 22.156 69.184 22.072 70.432 22.072C70.576 22.072 70.708 22.072 70.828 22.072C70.948 22.072 71.116 22.072 71.332 22.072C71.548 22.072 71.884 22.084 72.34 22.108ZM72.412 24.268C72.148 24.268 71.956 24.268 71.836 24.268C71.716 24.244 71.488 24.232 71.152 24.232C70.048 24.256 69.184 24.4 68.56 24.664C67.96 24.904 67.564 25.336 67.372 25.96C67.012 26.824 67.276 27.484 68.164 27.94C68.764 28.372 69.532 28.456 70.468 28.192C71.068 28.072 71.536 27.832 71.872 27.472C72.232 27.088 72.412 26.608 72.412 26.032V24.268ZM84.1787 25.852L86.7347 18.22C87.0947 17.164 87.7187 16.636 88.6067 16.636C89.4707 16.636 90.0827 17.188 90.4427 18.292L92.8907 25.852L95.2307 18.184C95.5427 17.128 96.1187 16.6 96.9587 16.6C97.3907 16.6 97.7747 16.756 98.1107 17.068C98.4467 17.38 98.6147 17.74 98.6147 18.148C98.6147 18.292 98.5907 18.46 98.5427 18.652C98.5187 18.844 98.4707 19.024 98.3987 19.192L94.9427 29.596C94.5347 30.748 93.8627 31.324 92.9267 31.324C91.9427 31.324 91.2587 30.724 90.8747 29.524L88.4267 22.036L85.9427 29.524C85.5587 30.724 84.8747 31.324 83.8907 31.324C82.9067 31.324 82.2227 30.712 81.8387 29.488L78.5267 19.336C78.4787 19.168 78.4307 18.988 78.3827 18.796C78.3587 18.604 78.3467 18.424 78.3467 18.256C78.3467 17.8 78.5147 17.416 78.8507 17.104C79.2107 16.768 79.6307 16.6 80.1107 16.6C81.0227 16.6 81.6347 17.176 81.9467 18.328L84.1787 25.852ZM105.073 21.748L110.221 17.284C110.629 16.9 111.013 16.708 111.373 16.708C111.757 16.708 112.081 16.852 112.345 17.14C112.633 17.428 112.777 17.764 112.777 18.148C112.777 18.532 112.537 18.928 112.057 19.336L108.241 22.648L112.921 28.444C113.233 28.9 113.389 29.32 113.389 29.704C113.389 30.112 113.221 30.484 112.885 30.82C112.549 31.132 112.165 31.288 111.733 31.288C111.397 31.288 111.097 31.204 110.833 31.036C110.593 30.868 110.353 30.592 110.113 30.208L105.073 23.8V29.164C105.073 29.86 104.917 30.4 104.605 30.784C104.293 31.168 103.861 31.36 103.309 31.36C102.733 31.36 102.289 31.168 101.977 30.784C101.665 30.4 101.509 29.86 101.509 29.164V10.48C101.509 9.784 101.665 9.244 101.977 8.86C102.289 8.476 102.733 8.284 103.309 8.284C103.861 8.284 104.293 8.476 104.605 8.86C104.917 9.244 105.073 9.784 105.073 10.48V21.748ZM118.521 24.916V25.384C118.521 26.416 118.809 27.184 119.385 27.688C119.961 28.192 120.825 28.444 121.977 28.444C122.673 28.444 123.345 28.384 123.993 28.264C124.641 28.12 125.205 27.928 125.685 27.688C125.877 27.616 126.033 27.58 126.153 27.58C126.537 27.58 126.861 27.724 127.125 28.012C127.413 28.276 127.557 28.612 127.557 29.02C127.557 29.236 127.497 29.452 127.377 29.668C127.281 29.86 127.137 30.028 126.945 30.172C126.441 30.532 125.721 30.82 124.785 31.036C123.873 31.252 122.865 31.36 121.761 31.36C119.553 31.36 117.873 30.82 116.721 29.74C115.569 28.636 114.993 27.028 114.993 24.916V23.44C114.993 21.208 115.545 19.504 116.649 18.328C117.777 17.152 119.409 16.564 121.545 16.564C123.729 16.564 125.337 17.2 126.369 18.472C126.777 18.952 127.101 19.6 127.341 20.416C127.605 21.232 127.737 22.072 127.737 22.936C127.737 23.656 127.497 24.172 127.017 24.484C126.537 24.772 125.973 24.916 125.325 24.916H118.521ZM124.461 22.504C124.365 21.304 124.089 20.464 123.633 19.984C123.201 19.48 122.505 19.228 121.545 19.228C120.561 19.228 119.829 19.492 119.349 20.02C118.869 20.524 118.581 21.352 118.485 22.504H124.461ZM134.208 30.964L129.924 19.336C129.876 19.168 129.828 18.988 129.78 18.796C129.732 18.58 129.708 18.4 129.708 18.256C129.708 17.824 129.888 17.452 130.248 17.14C130.608 16.804 131.016 16.636 131.472 16.636C132.36 16.636 132.972 17.176 133.308 18.256L136.116 26.716L138.888 18.184C139.224 17.152 139.812 16.636 140.652 16.636C141.108 16.636 141.492 16.792 141.804 17.104C142.14 17.416 142.308 17.776 142.308 18.184C142.308 18.52 142.224 18.88 142.056 19.264L136.908 32.836C136.62 33.58 136.368 34.18 136.152 34.636C135.96 35.092 135.756 35.464 135.54 35.752C135.348 36.064 135.108 36.376 134.82 36.688C134.412 37.144 133.932 37.504 133.38 37.768C132.828 38.032 132.3 38.164 131.796 38.164C131.412 38.164 131.1 38.032 130.86 37.768C130.62 37.504 130.5 37.156 130.5 36.724C130.5 36.34 130.572 36.04 130.716 35.824C130.884 35.608 131.184 35.392 131.616 35.176C132.048 34.984 132.408 34.684 132.696 34.276C133.008 33.868 133.32 33.256 133.632 32.44L134.208 30.964Z" fill="#2ACC8B"/>
</svg>
