<svg width="40" height="40" viewBox="0 0 40 40" fill="none" xmlns="http://www.w3.org/2000/svg">
<rect width="40" height="40" rx="10" fill="#2ACC8B"/>
<path d="M18.206 6.14607L18.4907 5.08356L18.4907 5.08356L18.206 6.14607ZM28.481 8.90021L28.7657 7.83771L28.7657 7.83769L28.481 8.90021ZM33.8533 18.2054L34.9158 18.49L34.9158 18.49L33.8533 18.2054ZM31.1 28.4806L32.1625 28.7653L32.1625 28.7653L31.1 28.4806ZM21.7948 33.8529L21.5101 34.9155L21.5101 34.9155L21.7948 33.8529ZM11.5195 31.0998L11.2348 32.1623L11.2348 32.1623L11.5195 31.0998ZM6.1472 21.7946L5.08468 21.5099L5.08466 21.51L6.1472 21.7946ZM8.90048 11.5194L7.83796 11.2347L7.83795 11.2347L8.90048 11.5194ZM8.0804 18.4211L7.2987 17.6471L8.0804 18.4211ZM18.4214 31.9193L17.6473 32.7008L18.4214 31.9193ZM31.9198 21.5778L32.7013 22.3519L31.9198 21.5778ZM31.1121 24.5922L30.0482 24.8719L31.1121 24.5922ZM18.206 6.14607L17.9212 7.20858C19.0523 7.51166 20.0302 8.09387 20.8048 8.86084L21.5788 8.07921L22.3528 7.29758C21.3139 6.26888 20.0012 5.48832 18.4907 5.08356L18.206 6.14607ZM24.5929 8.88709L24.872 9.95107C25.9264 9.67442 27.0649 9.65958 28.1962 9.96272L28.481 8.90021L28.7657 7.83769C27.2553 7.433 25.728 7.45201 24.3137 7.82311L24.5929 8.88709ZM28.481 8.90021L28.1962 9.96271C31.6625 10.8917 33.7195 14.4544 32.7908 17.9207L33.8533 18.2054L34.9158 18.49C36.1591 13.8501 33.4054 9.08118 28.7657 7.83771L28.481 8.90021ZM33.8533 18.2054L32.7908 17.9207C32.4877 19.0516 31.9054 20.0293 31.1383 20.8037L31.9198 21.5778L32.7013 22.3519C33.7301 21.3133 34.511 20.0008 34.9158 18.49L33.8533 18.2054ZM31.1121 24.5922L30.0482 24.8719C30.3253 25.9263 30.3406 27.0645 30.0375 28.1959L31.1 28.4806L32.1625 28.7653C32.5674 27.2543 32.5476 25.7269 32.1759 24.3126L31.1121 24.5922ZM31.1 28.4806L30.0375 28.1959C29.1086 31.6622 25.5458 33.7191 22.0794 32.7904L21.7948 33.8529L21.5101 34.9155C26.15 36.1586 30.9192 33.4053 32.1625 28.7653L31.1 28.4806ZM21.7948 33.8529L22.0795 32.7904C20.9481 32.4873 19.97 31.9049 19.1955 31.1377L18.4214 31.9193L17.6473 32.7008C18.6862 33.7299 19.9991 34.5106 21.5101 34.9155L21.7948 33.8529ZM15.4069 31.1115L15.1272 30.0477C14.073 30.3248 12.9352 30.3403 11.8042 30.0372L11.5195 31.0998L11.2348 32.1623C12.7456 32.5671 14.2726 32.5471 15.6865 32.1754L15.4069 31.1115ZM11.5195 31.0998L11.8043 30.0372C8.33802 29.1084 6.2811 25.5456 7.20973 22.0792L6.1472 21.7946L5.08466 21.51C3.84166 26.1498 6.59491 30.919 11.2348 32.1623L11.5195 31.0998ZM6.1472 21.7946L7.20972 22.0793C7.51286 20.948 8.0951 19.9697 8.86209 19.195L8.0804 18.4211L7.2987 17.6471C6.26991 18.6863 5.48945 19.9993 5.08468 21.5099L6.1472 21.7946ZM8.88806 15.4066L9.95198 15.1272C9.67512 14.0731 9.65997 12.9352 9.96301 11.804L8.90048 11.5194L7.83795 11.2347C7.43328 12.7452 7.45276 14.2721 7.82415 15.6861L8.88806 15.4066ZM8.90048 11.5194L9.963 11.8041C10.8919 8.33746 14.455 6.27982 17.9213 7.20859L18.206 6.14607L18.4907 5.08356C13.8504 3.84022 9.08123 6.59479 7.83796 11.2347L8.90048 11.5194ZM8.0804 18.4211L8.86209 19.195C9.9023 18.1443 10.3276 16.5572 9.95198 15.1272L8.88806 15.4066L7.82415 15.6861C8.00205 16.3634 7.79144 17.1495 7.2987 17.6471L8.0804 18.4211ZM18.4214 31.9193L19.1955 31.1377C18.1449 30.0972 16.5575 29.6717 15.1272 30.0477L15.4069 31.1115L15.6865 32.1754C16.3637 31.9974 17.1497 32.208 17.6473 32.7008L18.4214 31.9193ZM31.9198 21.5778L31.1383 20.8037C30.0976 21.8543 29.6723 23.4417 30.0482 24.8719L31.1121 24.5922L32.1759 24.3126C31.9979 23.6353 32.2085 22.8494 32.7013 22.3519L31.9198 21.5778ZM21.5788 8.07921L20.8048 8.86084C21.8553 9.90111 23.4422 10.3262 24.872 9.95107L24.5929 8.88709L24.3137 7.82311C23.6362 8.00087 22.8503 7.7902 22.3528 7.29758L21.5788 8.07921Z" fill="white"/>
<rect x="22.4644" y="14.3994" width="5.35714" height="6.25" rx="2.67857" transform="rotate(6.47629 22.4644 14.3994)" fill="white"/>
<ellipse cx="25.8856" cy="17.9324" rx="1.11607" ry="1.78571" transform="rotate(6.47629 25.8856 17.9324)" fill="#2ACE8C"/>
<rect x="15.0122" y="13.5527" width="5.35714" height="6.25" rx="2.67857" transform="rotate(6.47629 15.0122 13.5527)" fill="white"/>
<ellipse cx="18.4334" cy="17.0867" rx="1.11607" ry="1.78571" transform="rotate(6.47629 18.4334 17.0867)" fill="#2ACE8C"/>
</svg>
